{
  "source": "C:\\Users\\Peter\\Desktop\\stuff\\MIUN\\quantitative_research\\video_compression\\videos\\UVG\\ReadySteadyGo_1920x1080_120fps_420_8bit_YUV.y4m",
  "output": "C:\\Users\\Peter\\Desktop\\stuff\\MIUN\\quantitative_research\\video_compression\\compressed_videos\\UVG\\h264\\2.5\\ReadySteadyGo_1920x1080_120fps_420_8bit_YUV_h264.mp4",
  "codec": "h264",
  "ok": "[yuv4mpegpipe @ 000001f5aee35f00] Stream #0: not enough frames to estimate rate; consider increasing probesize\nInput #0, yuv4mpegpipe, from 'C:\\Users\\Peter\\Desktop\\stuff\\MIUN\\quantitative_research\\video_compression\\videos\\UVG\\ReadySteadyGo_1920x1080_120fps_420_8bit_YUV.y4m':\n  Duration: 00:00:05.00, start: 0.000000, bitrate: 2985989 kb/s\n  Stream #0:0: Video: rawvideo (I420 / 0x30323449), yuv420p(progressive), 1920x1080, 120 fps, 120 tbr, 120 tbn\n[out#0/mp4 @ 000001f5aee39b40] Codec AVOption b:a (set bitrate (in bits/s)) has not been used for any stream. The most likely reason is either wrong type (e.g. a video option with no video streams) or that it is a private option of some decoder which was not actually used for any stream.\nStream mapping:\n  Stream #0:0 -> #0:0 (rawvideo (native) -> h264 (libx264))\nPress [q] to stop, [?] for help\n[libx264 @ 000001f5aee3cc00] using cpu capabilities: MMX2 SSE2Fast SSSE3 SSE4.2 AVX FMA3 BMI2 AVX2\n[libx264 @ 000001f5aee3cc00] profile High, level 5.1, 4:2:0, 8-bit\n[libx264 @ 000001f5aee3cc00] 264 - core 165 r3222 b35605a - H.264/MPEG-4 AVC codec - Copyleft 2003-2025 - http://www.videolan.org/x264.html - options: cabac=1 ref=5 deblock=1:0:0 analyse=0x3:0x113 me=hex subme=8 psy=1 psy_rd=1.00:0.00 mixed_ref=1 me_range=16 chroma_me=1 trellis=2 8x8dct=1 cqm=0 deadzone=21,11 fast_pskip=1 chroma_qp_offset=-2 threads=18 lookahead_threads=3 sliced_threads=0 nr=0 decimate=1 interlaced=0 bluray_compat=0 constrained_intra=0 bframes=3 b_pyramid=2 b_adapt=1 b_bias=0 direct=3 weightb=1 open_gop=0 weightp=2 keyint=250 keyint_min=25 scenecut=40 intra_refresh=0 rc_lookahead=50 rc=cbr mbtree=1 bitrate=2500 ratetol=1.0 qcomp=0.60 qpmin=0 qpmax=69 qpstep=4 vbv_maxrate=2500 vbv_bufsize=2500 nal_hrd=none filler=0 ip_ratio=1.40 aq=1:1.00\nOutput #0, mp4, to 'C:\\Users\\Peter\\Desktop\\stuff\\MIUN\\quantitative_research\\video_compression\\compressed_videos\\UVG\\h264\\2.5\\ReadySteadyGo_1920x1080_120fps_420_8bit_YUV_h264.mp4':\n  Metadata:\n    encoder         : Lavf62.3.100\n  Stream #0:0: Video: h264 (avc1 / 0x31637661), yuv420p(tv, progressive), 1920x1080, q=2-31, 2500 kb/s, 120 fps, 15360 tbn\n    Metadata:\n      encoder         : Lavc62.11.100 libx264\n    Side data:\n      cpb: bitrate max/min/avg: 2500000/0/2500000 buffer size: 2500000 vbv_delay: N/A\nframe=    0 fps=0.0 q=0.0 size=       0KiB time=N/A bitrate=N/A speed=N/A elapsed=0:00:00.50    \nframe=   20 fps= 19 q=45.0 size=       0KiB time=00:00:00.15 bitrate=   2.6kbits/s speed=0.145x elapsed=0:00:01.03    \nframe=   56 fps= 36 q=44.0 size=       0KiB time=00:00:00.45 bitrate=   0.9kbits/s speed=0.289x elapsed=0:00:01.55    \nframe=   96 fps= 46 q=44.0 size=       0KiB time=00:00:00.78 bitrate=   0.5kbits/s speed=0.378x elapsed=0:00:02.07    \nframe=  132 fps= 51 q=46.0 size=     256KiB time=00:00:01.08 bitrate=1936.2kbits/s speed=0.418x elapsed=0:00:02.59    \nframe=  166 fps= 53 q=46.0 size=     256KiB time=00:00:01.36 bitrate=1534.8kbits/s speed=0.44x elapsed=0:00:03.10    \nframe=  203 fps= 56 q=47.0 size=     512KiB time=00:00:01.67 bitrate=2504.3kbits/s speed=0.463x elapsed=0:00:03.62    \nframe=  233 fps= 56 q=48.0 size=     512KiB time=00:00:01.92 bitrate=2179.1kbits/s speed=0.464x elapsed=0:00:04.14    \nframe=  267 fps= 57 q=50.0 size=     768KiB time=00:00:02.20 bitrate=2849.1kbits/s speed=0.473x elapsed=0:00:04.67    \nframe=  298 fps= 57 q=52.0 size=     768KiB time=00:00:02.46 bitrate=2550.7kbits/s speed=0.474x elapsed=0:00:05.20    \nframe=  333 fps= 58 q=52.0 size=     768KiB time=00:00:02.75 bitrate=2281.0kbits/s speed=0.483x elapsed=0:00:05.71    \nframe=  366 fps= 59 q=52.0 size=    1024KiB time=00:00:03.03 bitrate=2765.6kbits/s speed=0.487x elapsed=0:00:06.23    \nframe=  399 fps= 59 q=53.0 size=    1024KiB time=00:00:03.30 bitrate=2535.7kbits/s speed=0.49x elapsed=0:00:06.75    \nframe=  434 fps= 60 q=51.0 size=    1024KiB time=00:00:03.60 bitrate=2330.3kbits/s speed=0.495x elapsed=0:00:07.27    \nframe=  474 fps= 61 q=50.0 size=    1280KiB time=00:00:03.92 bitrate=2671.6kbits/s speed=0.503x elapsed=0:00:07.79    \nframe=  511 fps= 61 q=51.0 size=    1280KiB time=00:00:04.23 bitrate=2477.0kbits/s speed=0.509x elapsed=0:00:08.31    \nframe=  575 fps= 65 q=50.0 size=    1536KiB time=00:00:04.75 bitrate=2644.5kbits/s speed=0.538x elapsed=0:00:08.83    \n[mp4 @ 000001f5aee39c40] Starting second pass: moving the moov atom to the beginning of the file\n[out#0/mp4 @ 000001f5aee39b40] video:1577KiB audio:0KiB subtitle:0KiB other streams:0KiB global headers:0KiB muxing overhead: 0.483611%\nframe=  600 fps= 67 q=-1.0 Lsize=    1585KiB time=00:00:04.98 bitrate=2605.4kbits/s speed=0.553x elapsed=0:00:09.01    \n[libx264 @ 000001f5aee3cc00] frame I:3     Avg QP:43.21  size: 21904\n[libx264 @ 000001f5aee3cc00] frame P:188   Avg QP:46.28  size:  4608\n[libx264 @ 000001f5aee3cc00] frame B:409   Avg QP:48.03  size:  1668\n[libx264 @ 000001f5aee3cc00] consecutive B-frames:  1.7% 16.7% 17.0% 64.7%\n[libx264 @ 000001f5aee3cc00] mb I  I16..4: 31.9% 65.9%  2.2%\n[libx264 @ 000001f5aee3cc00] mb P  I16..4:  3.2%  2.6%  0.0%  P16..4: 18.7%  1.0%  1.3%  0.0%  0.0%    skip:73.2%\n[libx264 @ 000001f5aee3cc00] mb B  I16..4:  0.0%  0.0%  0.0%  B16..8: 18.3%  0.3%  0.0%  direct: 0.1%  skip:81.2%  L0:34.7% L1:65.1% BI: 0.1%\n[libx264 @ 000001f5aee3cc00] 8x8 transform intra:48.9% inter:95.9%\n[libx264 @ 000001f5aee3cc00] direct mvs  spatial:97.1% temporal:2.9%\n[libx264 @ 000001f5aee3cc00] coded y,uvDC,uvAC intra: 10.0% 26.4% 2.3% inter: 0.4% 1.7% 0.0%\n[libx264 @ 000001f5aee3cc00] i16 v,h,dc,p: 45% 34%  5% 16%\n[libx264 @ 000001f5aee3cc00] i8 v,h,dc,ddl,ddr,vr,hd,vl,hu: 17%  7% 39%  5%  7%  7%  7%  5%  5%\n[libx264 @ 000001f5aee3cc00] i4 v,h,dc,ddl,ddr,vr,hd,vl,hu: 30% 14% 13%  6%  8%  9%  7%  6%  8%\n[libx264 @ 000001f5aee3cc00] i8c dc,h,v,p: 80% 12%  7%  1%\n[libx264 @ 000001f5aee3cc00] Weighted P-Frames: Y:0.0% UV:0.0%\n[libx264 @ 000001f5aee3cc00] ref P L0: 62.5%  4.1% 19.4%  6.5%  7.3%  0.2%\n[libx264 @ 000001f5aee3cc00] ref B L0: 86.5%  8.6%  4.0%  1.0%\n[libx264 @ 000001f5aee3cc00] ref B L1: 97.2%  2.8%\n[libx264 @ 000001f5aee3cc00] kb/s:2583.00\n",
  "seconds": 9.141347408294678,
  "probe_out": {}
}